<svg xmlns="http://www.w3.org/2000/svg" viewBox="0 0 225.62 225.62" class="windmill" style="top: 17.892vw;"><path d="M3.97 202.25c-.08-.28-.08-.54-.21-.69-1.01-1.13-1.65-2.5-2.47-3.76-.33-.51-.81-.91-1.3-1.45.23-.23.43-.5.69-.69 1.23-.91 2.48-1.79 3.72-2.68.61-.44 1.2-.9 1.79-1.35 1.25-.94 2.49-1.89 3.74-2.84 2.94-2.24 5.89-4.46 8.82-6.72 3.07-2.38 6.09-4.81 9.16-7.2 3.81-2.96 7.6-5.94 11.45-8.85 3.45-2.6 6.98-5.09 10.46-7.65 1.94-1.43 3.82-2.94 5.78-4.35 2.69-1.94 5.41-3.84 8.14-5.74 2.63-1.83 5.05-3.91 7.51-5.95 1.62-1.34 3.28-2.61 4.92-3.92 1.74-1.39 3.43-2.83 5.21-4.16 3.25-2.45 6.53-4.87 9.84-7.24 3.97-2.84 7.98-5.63 11.99-8.42 1.36-.95 2.74-1.87 4.15-2.75.34-.22.82-.26 1.24-.29.15-.01.42.21.47.37.04.14-.12.4-.27.52-1.56 1.25-3.12 2.51-4.72 3.71-1.05.79-2.16 1.49-3.24 2.24-1.47 1.01-2.96 1.99-4.41 3.03a248.41 248.41 0 0 0-4.9 3.64c-1.02.77-2.01 1.58-3.09 2.43.58.74 1.14 1.39 1.63 2.09.55.8 1.03 1.64 1.53 2.47.94 1.54 1.74 3.18 2.96 4.53.25.28.49.58.65.92.65 1.39 1.76 2.41 2.74 3.54.55.64 1.01 1.35 1.56 1.98.98 1.13 1.63 2.5 2.77 3.53.75.68 1.42 1.51 1.95 2.39.85 1.41 1.99 2.56 3.02 3.81.5.6 1.01 1.19 1.47 1.82.2.27.34.61.4.94.12.64-.36 1.11-.99.99-.21-.04-.39-.17-.65-.28-.46.42-.93.87-1.42 1.28-1.53 1.28-3.04 2.6-4.62 3.82-2.01 1.55-4.06 3.03-5.89 4.8-.85.82-1.82 1.53-2.78 2.23-2.07 1.51-4.12 3.06-6.28 4.44-3.83 2.45-7.51 5.09-11.07 7.91-1.25.99-2.62 1.84-3.81 2.9-2.97 2.62-6.34 4.69-9.54 6.99-2.13 1.53-4.43 2.84-6.59 4.33-2.37 1.64-4.65 3.39-6.99 5.07-1.09.79-2.22 1.52-3.31 2.29-.94.66-2.04 1.07-2.83 1.95-.06.06-.16.12-.24.12-1.1-.03-1.94.68-2.85 1.1-1.67.77-3.32 1.64-4.87 2.63-1.87 1.19-3.64 2.54-5.43 3.85-1.41 1.03-2.82 2.08-4.19 3.18-1.05.84-2.03 1.76-3.03 2.66-1.17 1.04-2.6.82-3.5-.48-1.24-1.8-2.53-3.58-3.8-5.36-.14-.2-.32-.4-.53-.5-.36-.17-.67-.31-.6-.81.01-.09-.11-.21-.19-.31-1.16-1.6-2.31-3.2-3.48-4.78-.23-.31-.56-.56-.85-.83-.09-.09-.25-.16-.26-.25-.18-1.15-1.11-1.83-1.69-2.73-.61-.95-1.3-1.84-1.99-2.73-.24-.28-.59-.5-.88-.74zM65.3 178.9c-1.43-2.16-2.76-4.16-4.11-6.2-2.2 1.55-4.29 3.02-6.37 4.48 1.25 1.98 2.48 3.92 3.74 5.91 2.25-1.39 4.5-2.79 6.74-4.19zm2.17-13.16c-1.37-1.97-2.68-3.85-4.05-5.83-2.03 1.66-3.97 3.25-5.93 4.86 1.38 1.85 2.69 3.61 3.95 5.31 2-1.46 4-2.89 6.03-4.34zm-14.7 12.77c-1.89 1.37-3.78 2.73-5.67 4.1.12.25.17.44.27.59.82 1.22 1.66 2.42 2.47 3.64.42.63.94 1.14 1.55 1.62 1.93-1.44 3.81-2.85 5.67-4.24-1.43-1.9-2.83-3.77-4.29-5.71zm17.82-12.24c1.25 1.89 2.48 3.75 3.76 5.68 2.07-1.7 4.29-2.97 6.16-4.6-.73-.97-1.39-1.84-2.05-2.7-.07-.1-.18-.17-.27-.26-.57-.66-1.14-1.32-1.7-1.98-.13-.16-.26-.32-.43-.52-1.84 1.47-3.63 2.91-5.47 4.38zm-7.69 25.39c-1.48-1.93-2.87-3.74-4.33-5.65-1.96 1.47-3.87 2.9-5.82 4.36.46 1.07 1.53 1.71 2.07 2.72.57 1.06 1.59 1.61 2.34 2.56 1.98-1.38 3.88-2.7 5.74-3.99zm27.97-42.32c1.82-1.25 3.53-2.43 5.21-3.58-1.63-2.23-3.21-4.4-4.79-6.56-.75.38-3.97 3.32-5 4.58 1.49 1.81 3 3.64 4.58 5.56zm-28.08 22.38c.94 2.41 2.85 3.9 4.32 5.85 1.84-1.46 3.64-2.89 5.47-4.34-1.35-1.9-2.67-3.75-3.94-5.54-1.98 1.36-3.93 2.71-5.85 4.03zm6.39-7.23c1.92-1.52 3.73-2.95 5.59-4.43-1.4-1.89-2.76-3.73-4.12-5.57-2.04 1.22-3.78 2.62-5.47 3.98 1.34 2.02 2.63 3.96 4 6.02zm-26.98 30.6c-.76-1.04-1.5-1.96-2.13-2.95-.63-.99-.98-2.16-1.85-3.02-2.11.96-3.81 2.49-5.67 3.69 1.44 2.12 2.81 4.16 4.24 6.27 1.84-1.37 3.6-2.66 5.41-3.99zm34.04-21.79c1.24 1.88 2.41 3.66 3.6 5.45 2.19-1.44 4.26-2.81 6.34-4.18-.7-.98-1.31-1.92-2.01-2.79-.7-.86-1.48-1.66-2.28-2.54-1.89 1.36-3.76 2.7-5.65 4.06zm-16.26-2.15c-.12-.18-.18-.28-.25-.38-1.15-1.51-2.3-3.03-3.46-4.54-.05-.07-.15-.09-.28-.16-1.9 1.44-3.81 2.88-5.7 4.31 1.14 2.43 2.22 4.05 3.39 5.1 2.07-1.42 4.15-2.85 6.3-4.33zm23.56-17.12c2.02-1.32 3.96-2.6 5.9-3.87-1.53-1.87-2.99-3.65-4.49-5.48-1.83 1.56-3.88 2.65-5.69 4.26 1.44 1.7 2.82 3.35 4.28 5.09zm-5.76 6.58c1.51 1.84 2.97 3.61 4.47 5.44 1.79-1.39 3.61-2.68 5.29-4.18-1.11-2.07-2.88-3.46-4.22-5.35-1.86 1.37-3.63 2.68-5.54 4.09zm-18.92-6.84c-2.31 1.58-4.53 3.18-6.66 4.92 1.56 1.32 2.6 3.04 3.91 4.58l6.11-5.05c-1.1-1.55-2.03-3.1-3.36-4.45zm-16.78 52.38c2.18-1.17 4.01-2.75 5.93-4.28-.78-.87-1.58-1.64-2.21-2.52-.65-.9-1.52-1.57-2.14-2.55-1.87 1.26-3.66 2.48-5.51 3.73.81.68 1.33 1.47 1.67 2.39.03.09.1.16.15.23.68.98 1.36 1.94 2.11 3zm32.36-63.91c1.23 1.75 2.37 3.38 3.54 5.05 1.92-1.56 4.04-2.66 5.85-4.27-1.35-1.74-2.2-3.71-3.68-5.42-1.91 1.56-3.77 3.07-5.71 4.64zm-4.36 43.94c-.73-.88-1.44-1.63-2.03-2.46-.61-.85-1.1-1.78-1.69-2.75-2.03 1.38-4.24 2.32-6.09 3.98.71.38 1.18.91 1.47 1.59.07.17.21.3.32.46.54.76 1.07 1.53 1.63 2.28.28.39.6.75.96 1.2 1.89-1.49 3.67-2.9 5.43-4.3zm-1.32-6.7c.32 1.43 2.24 4.08 3.34 5.15 1.98-1.52 3.97-3.05 6.02-4.62-.81-.84-1.58-1.56-2.26-2.37-.67-.8-1.25-1.67-1.95-2.61l-5.15 4.45zm-35.64 2.82c-1.75 1.66-4.04 2.61-5.77 4.22.97 1.33 1.89 2.6 2.82 3.85.18.25.44.44.65.67.33.37.66.4 1.06.1.7-.53 1.41-1.04 2.13-1.53 1.01-.69 2.03-1.35 2.92-1.94-1.26-1.79-2.5-3.53-3.81-5.37zm1.53 18.06c-1.49-2-2.91-3.89-4.37-5.83-1.69 1.41-3.65 2.3-5.23 3.93.73.86 1.43 1.72 2.17 2.55.76.85 1.1 2.02 2.07 2.75 1.78-1.13 3.52-2.24 5.36-3.4zm52.46-67.74c-.4.26-.8.49-1.17.77-1.27.96-2.54 1.93-3.8 2.9-.19.15-.36.32-.59.53 1.32 1.67 2.2 3.59 3.62 5.24 1.85-1.45 3.64-2.86 5.5-4.32-1.17-1.65-1.74-3.71-3.56-5.12zm-52.29 48.39c1.47 1.86 2.82 3.57 4.24 5.37 1.81-1.35 3.53-2.63 5.29-3.94-.56-.97-1.05-1.83-1.56-2.69-.5-.85-1.01-1.69-1.49-2.5-2.16 1.26-4.26 2.47-6.48 3.76zm20.72 15.57c-1.83-1.48-2.73-3.67-4.36-5.25-1.85 1.32-3.6 2.57-5.42 3.86 1.23 1.91 3.09 3.28 3.89 5.46 2.01-1.38 3.92-2.7 5.89-4.07zm33.35-32.82c-1.65 1.58-3.62 2.54-5.12 4.07.34.61.57 1.16.92 1.63.35.47.84.84 1.23 1.28.29.32.54.68.8 1.04.35.5.69 1.01 1.09 1.6 1.75-1.33 3.42-2.58 5.12-3.87-1.36-1.94-2.67-3.8-4.04-5.75zm-10.8-13.95l-5.63 3.55c1.36 1.8 2.71 3.58 4.08 5.38 1.95-1.34 3.82-2.62 5.78-3.97-1.45-1.71-2.83-3.32-4.23-4.96zm-29.24 19.05c2.1-1.55 4.1-3.02 6.16-4.54-1.45-1.54-2.53-3.23-3.99-4.68-2 1.59-4.06 2.93-5.88 4.59 1.48 1.36 2.61 2.88 3.71 4.63zm45.55-11.87c-.45-.81-1.45-1.21-1.22-2.17-1.09-.81-1.64-1.99-2.42-3.04-2.01 1.31-3.94 2.56-5.86 3.82.4.86 3.51 4.65 4.18 5.11 1.6-1.05 3.19-2.09 4.78-3.14.21-.16.36-.39.54-.58zm-54.29 31c1.7 1.61 2.4 3.89 4.15 5.56 1.75-1.36 3.47-2.7 5.17-4.03-1.25-1.76-2.54-3.58-3.86-5.43-1.83 1.31-3.57 2.55-5.46 3.9zm-9.68-12.4c1.19 1.34 2.32 2.62 3.48 3.93 2.06-1.5 4.36-2.39 6.18-4.12-1.03-1.71-2.04-3.38-3.09-5.14-2.26 1.82-4.41 3.57-6.57 5.33zM16.68 202.2c2-1.06 3.75-2.37 5.38-3.84-1.27-1.69-2.48-3.3-3.74-4.97l-5.7 3.63c.65 1.01 1.16 1.94 1.81 2.77.65.83 1.44 1.55 2.25 2.41zm28.94-21.18l6.05-4.26c-1.2-1.68-2.36-3.3-3.5-4.9-1.57.75-4.24 2.83-5.71 4.44.35.51.72 1.04 1.09 1.56.36.51.77.99 1.11 1.51.36.55.66 1.12.96 1.65zm-5.29 26.1c-2.15-1.35-3.12-3.53-4.68-5.33-1.79 1.14-3.52 2.24-5.26 3.35l3.53 5.43c2.08-1.12 4.14-2.23 6.41-3.45zm-16.55-9.98c1.79-1.56 3.84-2.51 5.31-4.13-1.17-1.68-2.3-3.32-3.45-4.98-1.95 1.5-3.86 2.97-5.74 4.42.43.98 1.14 1.67 1.85 2.38.7.69 1.31 1.48 2.03 2.31zm-2.1-15.24c-2.16 1.72-4.23 3.26-6.09 5.03 1.13 1.47 2.21 2.87 3.29 4.27 2.17-1.46 4.04-3.09 5.89-4.8-1.04-1.51-2.03-2.95-3.09-4.5zm75.43-35c-1.62 1.42-3.16 2.76-4.75 4.15 1.17 1.71 2.37 3.47 3.61 5.28.4-.24.79-.43 1.14-.68 1.36-.96 2.71-1.94 4.1-2.95-1.42-1.93-2.66-3.98-4.1-5.8zm3.3 16.51c.9-.48 5.51-3.86 5.75-4.22-1.34-1.7-2.69-3.41-4.07-5.15-.52.49-.97.91-1.43 1.33-.64.59-1.26 1.2-1.93 1.75-.42.35-.91.63-1.36.93.55 1.4 2.47 4.77 3.04 5.36zm-73.3 41.8c-1.38-1.85-2.7-3.62-4.02-5.38-1.79 1.23-3.5 2.4-5.29 3.63 1.31 1.73 2.62 3.45 3.97 5.22 1.85-1.2 3.6-2.34 5.34-3.47zm2.14-28.77c-2.36 1.42-4.41 3.07-6.5 4.79 1.14 1.32 2.24 2.61 3.36 3.91l6.05-4.32c-.98-1.48-1.9-2.87-2.91-4.38zm-1.93 38.8c1.64-1.22 3.26-2.42 4.78-3.56-1.28-1.73-2.54-3.41-3.85-5.18-1.83 1.1-3.61 2.16-5.37 3.21 1.51 1.89 2.96 3.69 4.44 5.53zm-7.5-5.1c-1.33-1.82-2.6-3.55-3.93-5.36-1.53.96-3.08 1.93-4.72 2.96 1.13 2.26 2.63 4.17 4.35 6.03 1.47-1.24 2.9-2.44 4.3-3.63zm23.88-44.69a2895.8 2895.8 0 0 1-5.77 4.42c.54.74.98 1.6 1.66 2.21.75.68.83 1.73 1.52 2.44 1.93-1.51 3.81-2.98 5.72-4.47-1.04-1.52-2.07-3.04-3.13-4.6zm-23 45.76c-1.36 1.07-2.74 2.16-4.13 3.25.23.62.48 1.06.91 1.4.51.41.93.89 1.25 1.48.4.73.94 1.4 1.47 2.05.3.37.71.65 1.03.94 1.44-1.2 2.78-2.31 4.08-3.39-1.53-1.91-3.05-3.79-4.61-5.73zm78.14-46.47c-1.12-1.87-2.21-3.7-3.29-5.52-.85.33-4.55 2.84-5.02 3.41 1.27 1.83 2.55 3.66 3.89 5.58 1.5-1.18 2.92-2.29 4.42-3.47zm-25.46-21.39c-1.79 1.32-3.52 2.59-5.29 3.9.7 1.66 1.97 2.96 3.09 4.42 2.02-1.06 3.81-2.28 5.81-3.64-1.25-1.63-2.43-3.16-3.61-4.68zm-4.01 9.49c-.98-1.54-1.93-3.04-2.87-4.52-2.02 1.45-4 2.86-6.02 4.31 1.19 1.36 1.98 2.98 3.28 4.19 1.86-1.33 3.69-2.62 5.61-3.98zm-54.34 50.71c-1.37-1.87-2.64-3.6-3.94-5.38-1.62 1.15-3.23 2.29-4.97 3.52 1.87 1.44 3.13 3.21 4.37 5.08 1.59-1.12 3.09-2.19 4.54-3.22zm2.54-11.42c-1.19-1.42-1.97-3-3.13-4.29-2.14 1.55-4.2 3.04-6.38 4.63.89.03 1.21.66 1.64 1.19.65.79 1.35 1.53 2.03 2.3 1.97-1.3 3.85-2.53 5.84-3.83zm-12.13 8.6c1.7-1.25 3.33-2.44 4.99-3.66-.39-.48-.71-.86-1.02-1.24-.64-.77-1.27-1.54-1.91-2.31-.25-.3-.5-.41-.89-.18-1.56.89-2.81 2.13-4.16 3.41 1.18 1.19 1.78 2.74 2.99 3.98zM138.23 92.26c-.15-.24-.25-.53-.45-.7-1.36-1.17-2.15-2.75-3.13-4.2-.86-1.26-1.81-2.47-2.71-3.71-.33-.46-.61-.94-.94-1.4-.27-.38-.55-.76-.86-1.11-1.78-2.02-3.45-4.12-4.81-6.47-.54-.94-1.3-1.76-1.96-2.63-.15-.2-.32-.39-.45-.6-.92-1.42-1.83-2.84-2.75-4.25-.1-.16-.19-.32-.31-.53.19-.18.35-.36.54-.51 2.4-1.86 4.8-3.72 7.21-5.57 1.14-.87 2.3-1.74 3.48-2.55 1.93-1.33 3.86-2.67 5.63-4.23.72-.64 1.6-1.09 2.37-1.68 1.05-.8 2.02-1.68 3.09-2.45 1.67-1.22 3.38-2.38 5.08-3.55 3.34-2.28 6.69-4.52 10.01-6.83 1.65-1.14 3.22-2.39 4.84-3.56.53-.38 1.09-.73 1.67-1.03 1.53-.8 3.01-1.65 4.39-2.71 2.01-1.54 4.09-3 6.14-4.5 2.38-1.74 4.75-3.48 7.12-5.22 2.86-2.09 5.72-4.16 8.57-6.26 1.29-.95 2.53-1.94 3.82-2.89 1.34-.98 2.7-1.93 4.04-2.91.66-.48 1.27-1.01 1.93-1.5 1.75-1.31 3.51-2.62 5.28-3.9.45-.32 1-.51 1.5-.77.22-.11.43-.23.69-.36.52.05.77.44.94.93.06.17.13.36.24.5.91 1.22 1.85 2.43 2.75 3.66.53.73.96 1.53 1.48 2.27.59.84 1.25 1.64 1.84 2.49.7.99 1.36 2.02 2.05 3.02.23.33.46.69.77.94.83.67 1.35 1.53 1.75 2.51.26.64.58 1.25.92 1.85.43.76.91 1.49.99 2.41.03.28.25.57.45.8.46.55.91 1.09 1.19 1.78.18.45.57.81.9 1.19.47.54.97 1.05 1.46 1.57.46.49.52 1.12.6 1.74.02.18-.11.54-.22.56-.69.14-.76.81-1.13 1.21-.4.43-.9.78-1.37 1.14-.84.64-1.71 1.26-2.55 1.91-.59.46-1.16.95-1.74 1.41-.29.23-.6.44-.91.66-.93.69-1.85 1.39-2.8 2.05-1.18.82-2.37 1.63-3.58 2.41-1.42.91-2.87 1.78-4.31 2.66-1.2.74-2.43 1.43-3.6 2.21-1.54 1.02-3.07 2.06-4.53 3.18-1.73 1.33-3.38 2.77-5.09 4.13-1.15.91-2.36 1.76-3.54 2.63-.2.15-.42.27-.62.42-2.02 1.52-4.04 3.04-6.07 4.55-1.93 1.44-3.86 2.87-5.81 4.29-1.92 1.4-3.85 2.78-5.78 4.17-1.92 1.4-3.83 2.81-5.75 4.21-2.5 1.83-5.04 3.6-7.48 5.5-3.21 2.51-6.74 4.55-10.04 6.92-1.42 1.02-2.76 2.16-4.18 3.18-2.79 2.01-5.63 3.96-8.42 5.96-.79.56-1.5 1.22-2.27 1.81-2.61 2-5.23 3.97-7.84 5.97-1.41 1.08-2.8 2.19-4.18 3.31-1.41 1.14-2.79 2.31-4.18 3.47-.24.2-.49.4-.69.64-.65.8-1.64 1-2.51 1.39-.3.13-.82-.17-1.22-.32-.28-.1-.54-.29-.81-.44-.12-.34.12-.47.36-.53.96-.21 1.53-.93 2.19-1.55 2.81-2.63 5.6-5.29 8.82-7.44 1.35-.9 2.64-1.92 3.87-2.98 2.4-2.07 4.92-3.97 7.56-5.72 1.04-.63 2.03-1.34 3.06-2.05zm23.12-34.98c2.31-1.74 4.67-3.31 6.81-5.18-1.28-2.07-2.38-4.15-3.99-5.78-2.36 1.59-4.65 3.13-7 4.71 1.39 2.08 2.76 4.12 4.18 6.25zm-9.32 6.79c-1.64-2.22-3.23-4.37-4.8-6.5-1.87 1.48-3.68 2.91-5.53 4.37 1.17 2.45 2.42 4.81 3.8 7.08 2.19-1.67 4.31-3.27 6.53-4.95zm-2.91-7.81c1.62 2.22 3.03 4.41 4.72 6.45 2.03-1.58 4.07-2.94 6.04-4.53-1.45-2.08-2.84-4.08-4.26-6.12-2.17 1.42-4.26 2.76-6.5 4.2zm33.71-15.14c1.94-1.56 3.8-3.06 5.68-4.56-1.12-1.95-1.94-4.02-3.66-5.38-2.41.93-4.15 2.74-6.3 4.06 1.5 1.9 2.48 4.11 4.28 5.88zm-16.39 23.02c.85-.14 1.19-.72 1.68-1.11 1-.78 2-1.55 3.01-2.32.54-.42 1.09-.83 1.61-1.22-.15-.77-.52-1.32-.92-1.89-.6-.86-1.33-1.64-1.69-2.65-.09-.26-.34-.47-.52-.69-2.37 1.7-4.64 3.33-7 5.02 1.21 1.75 2.59 3.29 3.83 4.86zm-18.52-9.3c2.09-1.43 4.25-2.9 6.44-4.4-1.16-1.72-2.25-3.33-3.38-4.99-2.32 1.79-5.17 2.79-7.38 4.73 1.46 1.58 2.86 3.09 4.32 4.66zm7.87-5.54c2.36-1.68 4.66-3.32 6.96-4.97-.99-1.57-1.96-3.11-2.97-4.7-2.37 1.51-4.76 3.04-7.18 4.58.9 1.88 2.01 3.48 3.19 5.09zm-5.39 26.71c2.11-1.6 4.21-3.2 6.37-4.84-1.11-1.64-2.21-3.29-3.37-5.01-2.15 1.68-4.23 3.3-6.37 4.96 1.15 1.7 1.72 3.66 3.37 4.89zm45.9-44.8c-1.25-1.91-2.46-3.78-3.72-5.71-.92.73-1.79 1.31-2.5 2.03-1.08 1.09-2.18 2.11-3.74 2.72 1.56 1.56 2.82 3.22 3.67 5.27 2.13-1.46 4.15-2.84 6.29-4.31zm-24.58 9.03c1.28 2.1 2.29 4.28 3.71 6.21 1.92-1.38 3.79-2.72 5.7-4.08-1.43-2.05-2.79-3.98-4.15-5.92-1.61 1.52-3.37 2.64-5.26 3.79zM139.36 74.1c1.44-1.04 2.92-1.93 4.05-3.27-1.26-2.45-2.53-4.89-4.16-7.24-1.5 1.51-2.95 2.96-4.36 4.37.26.93.75 1.59 1.32 2.23.48.53.97 1.08 1.32 1.69.49.83 1.05 1.55 1.83 2.22zm-12.65-2.2c1.88-1.32 3.66-2.44 5.12-3.78-.83-1.53-1.59-2.96-2.38-4.37-.3-.53-.69-1.02-1.03-1.51-.19.09-.29.12-.36.18-.8.71-1.7 1.23-2.67 1.69-1 .47-1.84 1.24-2.52 2 .54.83 1.02 1.58 1.52 2.33.73 1.1 1.48 2.2 2.32 3.46zm10.43 3.97c-1.48-2.06-2.48-4.37-4.13-6.3-1.65 1.26-3.23 2.46-4.87 3.72 1.52 2.01 3.1 4.11 4.73 6.27 1.47-1.27 2.85-2.47 4.27-3.69zm48.02-47.47c2.14-1.57 4.35-2.8 6.38-4.39-.54-.88-1.04-1.67-1.51-2.47-.47-.79-.91-1.6-1.4-2.48-2.33 1.61-4.55 3.14-6.8 4.7 1.13 1.57 2.19 3.05 3.33 4.64zm-26.37 41.59c1.62-1.88 3.7-2.96 5.78-4.2-.84-1.38-1.61-2.67-2.41-3.94-.29-.47-.65-.89-1-1.36-2.1 1.22-4.12 2.49-5.74 4.41.87 1.77 1.99 3.4 3.37 5.09zm21.36-16.44c1.89-1.62 3.89-2.95 5.68-4.38-1.18-1.75-2.29-3.4-3.42-5.08-2.12 1.15-3.72 2.93-5.74 4.32 1.16 1.72 2.28 3.36 3.48 5.14zm-41.69 8.39c-1.26-1.41-1.99-3.32-3.42-4.88-1.82 1.35-3.59 2.65-5.37 3.96.99 2.14 2.61 3.65 4.02 5.4 1.61-1.52 3.17-2.98 4.77-4.48zm15.94 20.04c2.09-1.6 4.16-3.18 6.18-4.72-.31-.37-.61-.65-.81-.98-.61-.98-1.18-1.99-1.78-2.98-.11-.18-.25-.33-.39-.53-2.28 1.25-4.06 3.07-6.16 4.54 1.14 1.5 1.56 3.35 2.96 4.67zm-8.17-25.95c-1.45-1.46-2.25-3.26-3.57-4.62-1.89 1.48-4.1 2.37-5.58 4.21 1.19 1.58 2.39 3.15 3.62 4.78 1.8-1.42 3.6-2.85 5.53-4.37zm31.26-22.3c2.06-1.45 4.08-2.87 6.1-4.3-.9-1.66-1.77-3.28-2.65-4.91-.04.01-.14.03-.21.08-.15.1-.31.21-.44.35-1.19 1.27-2.63 2.2-4.1 3.09-.71.43-1.33.99-2.1 1.56.97.36 1.39 1.04 1.81 1.75.48.79 1.03 1.54 1.59 2.38zm22.84 4.76c-1.14-1.87-2.22-3.64-3.3-5.42l-5.48 4.38c1.17 1.63 2.33 3.25 3.54 4.94 1.75-1.29 3.47-2.57 5.24-3.9zm-12.83 9.4c1.88-1.39 3.65-2.7 5.44-4.03-1.1-1.78-2.12-3.44-3.15-5.11-2.21.94-3.7 2.7-5.64 3.89.21.26.36.42.48.6.66 1.02 1.32 2.04 1.97 3.07.3.48.57.99.9 1.58zm17.72-3.29c.01-.07.01-.13.02-.2-1.13 0-1.46-.89-1.96-1.58-.63-.87-1.25-1.75-1.94-2.73-1.96 1.07-3.43 2.66-5.32 3.74.85 1.79 1.75 3.48 2.79 5.12 2.19-1.49 4.3-2.92 6.41-4.35zm.31-27.81c-1.71 1.15-3.27 2.21-4.89 3.31 1.1 1.94 2.18 3.86 3.32 5.88 1.77-1.12 3.42-2.17 5.16-3.26-1.23-2.03-2.41-3.97-3.59-5.93zm-24.17 38c.93 1.64 1.89 3.19 3.18 4.52 1.92-1.44 3.84-2.88 5.7-4.28-1.19-1.59-2.32-3.11-3.49-4.69-1.84 1.51-3.59 2.96-5.39 4.45zm-13.61 10.79c.17.32.33.59.47.86.35.65.78 1.28 1.01 1.97.21.62.52 1.1.96 1.54 2.13-1.59 4.22-3.15 6.29-4.69-.43-.78-.82-1.5-1.23-2.21-.41-.71-.85-1.42-1.34-2.23-2.25 1.23-4.07 3.09-6.16 4.76zm31.31-44.5c-.83.54-1.66 1.1-2.5 1.64-.86.55-1.72 1.08-2.54 1.73.3.39.54.67.76.98.47.66.95 1.31 1.4 1.98.61.9 1.19 1.82 1.8 2.76 1.36-.96 2.62-1.86 3.88-2.75.61-.43.64-.56.3-1.21-.4-.74-.75-1.52-1.2-2.23-.61-.97-.92-2.14-1.9-2.9zm16.1-2.43c-.77-1.09-1.54-2.04-2.14-3.09-.6-1.04-1.07-2.16-1.76-3.04-1.53 1.17-3 2.3-4.51 3.46.38.84.73 1.71 1.4 2.46.51.57.82 1.32 1.21 1.99.28.47.56.95.86 1.47 1.7-1.1 3.28-2.15 4.94-3.25zm-22.1 4.33c1.74-1.2 3.47-2.39 5.28-3.64-1.24-1.63-1.7-3.63-2.77-5.07-1.98 1.4-3.87 2.74-5.73 4.06 1.02 1.46 2.08 2.99 3.22 4.65zm4.6 26.76c-.95-.34-1.47-1-1.92-1.71-.24-.37-.4-.78-.62-1.15-.36-.6-.71-1.23-1.3-1.64-1.76 1.4-3.77 2.37-5.35 4.07 1.15 1.47 2.31 2.94 3.48 4.44 1.87-1.33 3.73-2.63 5.71-4.01zm-1.28-36.4c1.56 1.42 1.9 3.57 3.28 5.14 1.66-1.13 3.26-2.22 4.81-3.28-.95-2.01-1.87-3.94-2.85-5.99-1.71 1.36-3.4 2.69-5.24 4.13zm9.26.99c1.7-1.13 3.28-2.17 4.89-3.25-1.02-1.91-2.06-3.85-3.14-5.87l-4.86 3.27c.33.53.63.93.84 1.36.45.89.84 1.81 1.28 2.71.29.59.63 1.15.99 1.78zm-31.68 33.24c-1.17-2.09-2.31-4.16-3.53-6.34-1.53 1.26-2.95 2.42-4.39 3.6.27.44.43.95.77 1.2.61.44.92 1.02 1.12 1.68.17.57.37 1.07.9 1.43.25.18.37.56.53.86.14.26.25.54.4.88 1.43-1.13 2.78-2.19 4.2-3.31zm-5.53 23.97c-.56-.89-1.12-1.56-1.42-2.33-.23-.58-.57-1.02-.93-1.49-.29-.39-.59-.38-1.05-.16-1.34.63-2.51 1.51-3.63 2.46-.47.4-.98.75-1.55 1.18.91 1.55 1.73 3.06 2.58 4.37 2.03-1.37 3.97-2.67 6-4.03zm-3.95-28.34c1.7-1.28 3.26-2.46 4.89-3.69-.57-1.48-1.15-2.97-1.7-4.38-.89.31-1.68.57-2.47.85-.32.12-.64.26-.92.44-.74.46-1.48.93-2.2 1.42-.38.26-.73.56-1.15.88 1.19 1.49 2.32 2.93 3.55 4.48zm40.48-15.72c.79 2.01 1.88 3.66 3.03 5.23l4.78-3.55c-.75-1.67-1.7-3.3-3.01-4.78-1.59 1.03-3.19 2.06-4.8 3.1zm10.51 2.43c.99 1.78 1.63 3.81 3.16 5.42 1.62-1.23 3.27-2.49 4.9-3.72-1.36-1.63-2.67-3.21-3.94-4.73-1.38 1.02-2.7 1.99-4.12 3.03zm-75.09 45.61c.84 1.4 1.68 2.72 2.42 4.1.36.67.88 1.09 1.44 1.48 1.27-1.07 2.49-2.09 3.72-3.13-.84-1.88-1.83-3.63-3.18-5.19-1.53.87-3.18 1.38-4.4 2.74zm-2.45 1.69c-1.13 1.38-2.74 2.1-3.73 3.44.02.13.02.19.04.25.24.65.63 1.2 1.08 1.74.74.89 1.35 1.88 2.03 2.81.19.26.44.47.67.7 1.33-1.12 2.56-2.15 3.76-3.15-1.3-1.95-2.53-3.8-3.85-5.79zM199 31.69c1.11 1.81 1.93 3.73 3.13 5.47 1.51-1.06 2.93-2.06 4.39-3.09-1.1-1.84-2.19-3.66-3.28-5.47-1.11.45-2.88 1.74-4.24 3.09zm14.6-.59c-1.59 1.19-2.99 2.24-4.43 3.32.9 1.9 2.1 3.51 3.24 5.23 1.52-1.04 2.97-2.04 4.49-3.08-.61-.77-1.15-1.45-1.68-2.14-.17-.22-.44-.44-.47-.68-.12-.97-.89-1.6-1.15-2.65zm-42.86 7.67c1.79-1.56 3.79-2.51 5.36-4.1-.93-1.46-1.43-3.11-2.62-4.43-.73.58-1.5 1.03-2.07 1.68-.85.97-1.77 1.82-2.82 2.46.33.68.54 1.41.98 1.92.6.68 1 1.41 1.17 2.47zm7.79 15.99c-1.22-1.7-2.36-3.29-3.54-4.94-1.18.95-2.44 1.95-3.8 3.04.32.46.57.84.84 1.21.31.43.76.8.92 1.28.36 1.07 1.33 1.61 1.89 2.62 1.33-1.15 2.56-2.23 3.69-3.21zm32.74-14.37c.01-.07.03-.14.04-.22-1.18.16-1.63-.62-2.09-1.43-.55-.98-1.15-1.93-1.78-2.98-1.59.78-2.87 1.99-4.39 3.03 1.38 1.5 2.04 3.45 3.72 4.66 1.52-1.03 3.01-2.05 4.5-3.06zm4.66-20.1c-1.6 1.04-3.07 2-4.6 2.99 1.09 1.69 2.13 3.3 3.16 4.9.77-.18 3.19-2.06 4.05-2.85-.88-1.7-1.75-3.37-2.61-5.04zm-37.55 43.76c1.55-1.2 2.98-2.3 4.48-3.46-1.14-1.53-2.22-2.99-3.32-4.47-1.17 1.01-2.27 1.98-3.4 2.9-.33.27-.34.47-.14.78.2.31.42.62.6.95.58 1.05 1.14 2.11 1.78 3.3zm-35.76 20.44c-.29.16-.63.31-.94.52-.75.52-1.45 1.09-2.21 1.58-.56.35-.66.78-.45 1.35.48 1.31 1.02 2.6 1.75 3.88 1.75-1.3 3.49-2.49 4.99-3.81-1.07-1.2-2.08-2.34-3.14-3.52zm2.87-2.25c.05.16.07.28.11.4.32.88.61 1.76.96 2.62.22.55.56 1.03 1.12 1.39 1.62-1.11 3.23-2.22 4.96-3.42-1.73-.93-2.67-2.47-3.81-3.86-1.4.68-2.17 2-3.34 2.87z"></path><path d="M114.95 108.65c-.63-.2-1.26-.4-1.87-.63-.78-.3-1.55-.23-2.32.03-.26.09-.53.13-.81.18-.7.12-1.35.33-1.76.96-1.02 1.56-1.63 3.24-1.31 5.14.18 1.06.58 2.07 1.4 2.75 1.87 1.57 4.01 1.9 6.3 1.01.4-.16.81-.36 1.12-.65 1.02-.95 1.55-2.18 1.89-3.41.1-1.28.07-2.42-.57-3.47-.51-.85-1.08-1.59-2.07-1.91z"></path><path fill="#ff9100" d="M114.82 111.91c-.18-.27-.34-.55-.54-.8-.14-.18-.33-.32-.51-.45-.15-.11-.33-.19-.49-.3-.61-.42-1.78-.44-2.4-.04-.09.06-.2.14-.29.12-.4-.08-.59.2-.7.46-.39.92-.79 1.82-.78 2.87.02 1.07.95 2.11 1.98 2.18.35 0 .7.04 1.04.01.99-.08 1.78-.58 2.4-1.31.65-.77.46-1.72.36-2.62-.01-.05-.05-.09-.07-.12z"></path><g><path d="M23.66 3.97c.28-.08.54-.08.69-.21 1.13-1.01 2.5-1.65 3.76-2.47.51-.33.91-.81 1.45-1.3.23.23.5.43.69.69.91 1.23 1.79 2.48 2.68 3.72.44.61.9 1.2 1.35 1.79.94 1.25 1.89 2.49 2.84 3.74 2.24 2.94 4.46 5.89 6.72 8.82 2.38 3.07 4.81 6.09 7.2 9.16 2.96 3.81 5.94 7.6 8.85 11.45 2.6 3.45 5.09 6.98 7.65 10.46 1.43 1.94 2.94 3.82 4.35 5.78 1.94 2.69 3.84 5.41 5.74 8.14 1.83 2.63 3.91 5.05 5.95 7.51 1.34 1.62 2.61 3.28 3.92 4.92 1.39 1.74 2.83 3.43 4.16 5.21 2.45 3.25 4.87 6.53 7.24 9.84 2.84 3.97 5.63 7.98 8.42 11.99.95 1.36 1.87 2.74 2.75 4.15.22.34.26.82.29 1.24.01.15-.21.42-.37.47-.14.04-.4-.12-.52-.27-1.25-1.56-2.51-3.12-3.71-4.72-.79-1.05-1.49-2.16-2.24-3.24-1.01-1.47-1.99-2.96-3.03-4.41a248.41 248.41 0 0 0-3.64-4.9c-.77-1.02-1.58-2.01-2.43-3.09-.74.58-1.39 1.14-2.09 1.63-.8.55-1.64 1.03-2.47 1.53-1.54.94-3.18 1.74-4.53 2.96-.28.25-.58.49-.92.65-1.39.65-2.41 1.76-3.54 2.74-.64.55-1.35 1.01-1.98 1.56-1.13.98-2.5 1.63-3.53 2.77-.68.75-1.52 1.42-2.39 1.95-1.41.85-2.56 1.99-3.81 3.02-.6.5-1.19 1.01-1.82 1.47-.27.2-.61.34-.94.4-.64.12-1.11-.36-.99-.99.04-.21.17-.39.28-.65-.42-.46-.87-.93-1.28-1.42-1.28-1.53-2.6-3.04-3.82-4.62-1.55-2.01-3.03-4.06-4.8-5.89-.82-.85-1.53-1.82-2.23-2.78-1.51-2.07-3.06-4.12-4.44-6.28-2.45-3.83-5.09-7.51-7.91-11.07-.99-1.25-1.84-2.62-2.9-3.81-2.62-2.97-4.69-6.34-6.99-9.54-1.53-2.13-2.84-4.43-4.33-6.59-1.64-2.37-3.39-4.65-5.07-6.99-.79-1.09-1.52-2.22-2.29-3.31-.66-.94-1.07-2.04-1.95-2.83-.06-.06-.12-.16-.12-.24.03-1.1-.68-1.94-1.1-2.85-.77-1.67-1.64-3.32-2.63-4.87-1.19-1.87-2.54-3.64-3.85-5.43-1.03-1.41-2.08-2.82-3.18-4.19-.84-1.05-1.76-2.03-2.66-3.03-1.04-1.17-.82-2.6.48-3.5 1.8-1.24 3.58-2.53 5.36-3.8.2-.14.4-.32.5-.53.17-.36.31-.67.81-.6.09.01.21-.11.31-.19 1.6-1.16 3.2-2.31 4.78-3.48.31-.23.56-.56.83-.85.09-.09.16-.25.25-.26 1.15-.18 1.83-1.11 2.73-1.69.95-.61 1.84-1.3 2.73-1.99.29-.24.5-.59.74-.88zM47.01 65.3c2.16-1.43 4.16-2.76 6.2-4.11-1.55-2.2-3.02-4.29-4.48-6.37-1.98 1.25-3.92 2.48-5.91 3.74 1.39 2.25 2.79 4.5 4.19 6.74zm13.16 2.17c1.97-1.37 3.85-2.68 5.83-4.05-1.66-2.03-3.25-3.97-4.86-5.93-1.85 1.38-3.61 2.69-5.31 3.95 1.46 2 2.89 4 4.34 6.03zM47.4 52.77c-1.37-1.89-2.73-3.78-4.1-5.67-.25.12-.44.17-.59.27-1.22.82-2.42 1.66-3.64 2.47-.63.42-1.14.94-1.62 1.55 1.44 1.93 2.85 3.81 4.24 5.67 1.9-1.43 3.77-2.83 5.71-4.29zm12.24 17.82c-1.89 1.25-3.75 2.48-5.68 3.76 1.7 2.07 2.97 4.29 4.6 6.16.97-.73 1.84-1.39 2.7-2.05.1-.07.17-.18.26-.27.66-.57 1.32-1.14 1.98-1.7.16-.13.32-.26.52-.43-1.47-1.84-2.91-3.63-4.38-5.47zM34.25 62.9c1.93-1.48 3.74-2.87 5.65-4.33-1.47-1.96-2.9-3.87-4.36-5.82-1.07.46-1.71 1.53-2.72 2.07-1.06.57-1.61 1.59-2.56 2.34 1.38 1.98 2.7 3.88 3.99 5.74zm42.32 27.97c1.25 1.82 2.43 3.53 3.58 5.21 2.23-1.63 4.4-3.21 6.56-4.79-.38-.75-3.32-3.97-4.58-5-1.81 1.49-3.64 3-5.56 4.58zM54.19 62.79c-2.41.94-3.9 2.85-5.85 4.32 1.46 1.84 2.89 3.64 4.34 5.47 1.9-1.35 3.75-2.67 5.54-3.94-1.36-1.98-2.71-3.93-4.03-5.85zm7.23 6.39c1.52 1.92 2.95 3.73 4.43 5.59 1.89-1.4 3.73-2.76 5.57-4.12-1.22-2.04-2.62-3.78-3.98-5.47-2.02 1.34-3.96 2.63-6.02 4zM30.82 42.2c1.04-.76 1.96-1.5 2.95-2.13.99-.63 2.16-.98 3.02-1.85-.96-2.11-2.49-3.81-3.69-5.67-2.12 1.44-4.16 2.81-6.27 4.24 1.37 1.84 2.66 3.6 3.99 5.41zm21.79 34.04c-1.88 1.24-3.66 2.41-5.45 3.6 1.44 2.19 2.81 4.26 4.18 6.34.98-.7 1.92-1.31 2.79-2.01.86-.7 1.66-1.48 2.54-2.28-1.36-1.89-2.7-3.76-4.06-5.65zm2.15-16.26c.18-.12.28-.18.38-.25 1.51-1.15 3.03-2.3 4.54-3.46.07-.05.09-.15.16-.28-1.44-1.9-2.88-3.81-4.31-5.7-2.43 1.14-4.05 2.22-5.1 3.39 1.42 2.07 2.85 4.15 4.33 6.3zm17.12 23.56c1.32 2.02 2.6 3.96 3.87 5.9 1.87-1.53 3.65-2.99 5.48-4.49-1.56-1.83-2.65-3.88-4.26-5.69-1.7 1.44-3.35 2.82-5.09 4.28zm-6.58-5.76c-1.84 1.51-3.61 2.97-5.44 4.47 1.39 1.79 2.68 3.61 4.18 5.29 2.07-1.11 3.46-2.88 5.35-4.22-1.37-1.86-2.68-3.63-4.09-5.54zm6.84-18.92c-1.58-2.31-3.18-4.53-4.92-6.66-1.32 1.56-3.04 2.6-4.58 3.91l5.05 6.11c1.55-1.1 3.1-2.03 4.45-3.36zM19.76 42.08c1.17 2.18 2.75 4.01 4.28 5.93.87-.78 1.64-1.58 2.52-2.21.9-.65 1.57-1.52 2.55-2.14-1.26-1.87-2.48-3.66-3.73-5.51-.68.81-1.47 1.33-2.39 1.67-.09.03-.16.1-.23.15-.98.68-1.94 1.36-3 2.11zm63.91 32.36c-1.75 1.23-3.38 2.37-5.05 3.54 1.56 1.92 2.66 4.04 4.27 5.85 1.74-1.35 3.71-2.2 5.42-3.68-1.56-1.91-3.07-3.77-4.64-5.71zm-43.94-4.36c.88-.73 1.63-1.44 2.46-2.03.85-.61 1.78-1.1 2.75-1.69-1.38-2.03-2.32-4.24-3.98-6.09-.38.71-.91 1.18-1.59 1.47-.17.07-.3.21-.46.32-.76.54-1.53 1.07-2.28 1.63-.39.28-.75.6-1.2.96 1.49 1.89 2.9 3.67 4.3 5.43zm6.7-1.32c-1.43.32-4.08 2.24-5.15 3.34 1.52 1.98 3.05 3.97 4.62 6.02.84-.81 1.56-1.58 2.37-2.26.8-.67 1.67-1.25 2.61-1.95l-4.45-5.15zm-2.82-35.64c-1.66-1.75-2.61-4.04-4.22-5.77-1.33.97-2.6 1.89-3.85 2.82-.25.18-.44.44-.67.65-.37.33-.4.66-.1 1.06.53.7 1.04 1.41 1.53 2.13.69 1.01 1.35 2.03 1.94 2.92 1.79-1.26 3.53-2.5 5.37-3.81zm-18.05 1.53c2-1.49 3.89-2.91 5.83-4.37-1.41-1.69-2.3-3.65-3.93-5.23-.86.73-1.72 1.43-2.55 2.17-.85.76-2.02 1.1-2.75 2.07 1.12 1.78 2.23 3.52 3.4 5.36zm67.73 52.46c-.26-.4-.49-.8-.77-1.17-.96-1.27-1.93-2.54-2.9-3.8-.15-.19-.32-.36-.53-.59-1.67 1.32-3.59 2.2-5.24 3.62 1.45 1.85 2.86 3.64 4.32 5.5 1.65-1.17 3.71-1.74 5.12-3.56zM44.9 34.82c-1.86 1.47-3.57 2.82-5.37 4.24 1.35 1.81 2.63 3.53 3.94 5.29.97-.56 1.83-1.05 2.69-1.56.85-.5 1.69-1.01 2.5-1.49-1.26-2.16-2.47-4.26-3.76-6.48zM29.33 55.54c1.48-1.83 3.67-2.73 5.25-4.36-1.32-1.85-2.57-3.6-3.86-5.42-1.91 1.23-3.28 3.09-5.46 3.89 1.38 2.01 2.7 3.92 4.07 5.89zm32.82 33.35c-1.58-1.65-2.54-3.62-4.07-5.12-.61.34-1.16.57-1.63.92-.47.35-.84.84-1.28 1.23-.32.29-.68.54-1.04.8-.5.35-1.01.69-1.6 1.09 1.33 1.75 2.58 3.42 3.87 5.12 1.94-1.36 3.8-2.67 5.75-4.04zm13.95-10.8l-3.55-5.63c-1.8 1.36-3.58 2.71-5.38 4.08 1.34 1.95 2.62 3.82 3.97 5.78 1.71-1.45 3.32-2.83 4.96-4.23zM57.05 48.85c1.55 2.1 3.02 4.1 4.54 6.16 1.54-1.45 3.23-2.53 4.68-3.99-1.59-2-2.93-4.06-4.59-5.88-1.36 1.48-2.88 2.61-4.63 3.71zM68.92 94.4c.81-.45 1.21-1.45 2.17-1.22.81-1.09 1.99-1.64 3.04-2.42-1.31-2.01-2.56-3.94-3.82-5.86-.86.4-4.65 3.51-5.11 4.18 1.05 1.6 2.09 3.19 3.14 4.78.16.21.39.36.58.54zM37.93 40.11c-1.61 1.7-3.89 2.4-5.56 4.15 1.36 1.75 2.7 3.47 4.03 5.17 1.76-1.25 3.58-2.54 5.43-3.86-1.32-1.83-2.56-3.57-3.9-5.46zm12.39-9.68c-1.34 1.19-2.62 2.32-3.93 3.48 1.5 2.06 2.39 4.36 4.12 6.18 1.71-1.03 3.38-2.04 5.14-3.09-1.82-2.26-3.57-4.41-5.33-6.57zM23.71 16.68c1.06 2 2.37 3.75 3.84 5.38 1.69-1.27 3.3-2.48 4.97-3.74l-3.63-5.7c-1.01.65-1.94 1.16-2.77 1.81-.83.65-1.55 1.44-2.41 2.25zm21.18 28.94l4.26 6.05c1.68-1.2 3.3-2.36 4.9-3.5-.75-1.57-2.83-4.24-4.44-5.71-.51.35-1.04.72-1.56 1.09-.51.36-.99.77-1.51 1.11-.55.36-1.12.66-1.65.96zm-26.1-5.29c1.35-2.15 3.53-3.12 5.33-4.68-1.14-1.79-2.24-3.52-3.35-5.26l-5.43 3.53c1.12 2.08 2.23 4.14 3.45 6.41zm9.98-16.55c1.56 1.79 2.51 3.84 4.13 5.31 1.68-1.17 3.32-2.3 4.98-3.45-1.5-1.95-2.97-3.86-4.42-5.74-.98.43-1.67 1.14-2.38 1.85-.69.7-1.48 1.31-2.31 2.03zm15.24-2.1c-1.72-2.16-3.26-4.23-5.03-6.09-1.47 1.13-2.87 2.21-4.27 3.29 1.46 2.17 3.09 4.04 4.8 5.89 1.51-1.04 2.95-2.03 4.5-3.09zm35 75.43c-1.42-1.62-2.76-3.16-4.15-4.75-1.71 1.17-3.47 2.37-5.28 3.61.24.4.43.79.68 1.14.96 1.36 1.94 2.71 2.95 4.1 1.93-1.42 3.98-2.66 5.8-4.1zm-16.51 3.3c.48.9 3.86 5.51 4.22 5.75 1.7-1.34 3.41-2.69 5.15-4.07-.49-.52-.91-.97-1.33-1.43-.59-.64-1.2-1.26-1.75-1.93-.35-.42-.63-.91-.93-1.36-1.4.55-4.77 2.47-5.36 3.04zm-41.8-73.3c1.85-1.38 3.62-2.7 5.38-4.02-1.23-1.79-2.4-3.5-3.63-5.29-1.73 1.31-3.45 2.62-5.22 3.97 1.2 1.85 2.34 3.6 3.47 5.34zm28.77 2.14c-1.42-2.36-3.07-4.41-4.79-6.5-1.32 1.14-2.61 2.24-3.91 3.36l4.32 6.05c1.48-.98 2.87-1.9 4.38-2.91zm-38.8-1.93c1.22 1.64 2.42 3.26 3.56 4.78 1.73-1.28 3.41-2.54 5.18-3.85-1.1-1.83-2.16-3.61-3.21-5.37-1.89 1.51-3.69 2.96-5.53 4.44zm5.1-7.5c1.82-1.33 3.55-2.6 5.36-3.93-.96-1.53-1.93-3.08-2.96-4.72-2.26 1.13-4.17 2.63-6.03 4.35 1.24 1.47 2.44 2.9 3.63 4.3zM60.46 43.7a2895.8 2895.8 0 0 1-4.42-5.77c-.74.54-1.6.98-2.21 1.66-.68.75-1.73.83-2.44 1.52 1.51 1.93 2.98 3.81 4.47 5.72 1.52-1.04 3.04-2.07 4.6-3.13zm-45.76-23c-1.07-1.36-2.16-2.74-3.25-4.13-.62.23-1.06.48-1.4.91-.41.52-.88.93-1.48 1.26-.73.4-1.4.94-2.05 1.47-.37.3-.65.71-.94 1.03 1.2 1.44 2.31 2.78 3.39 4.08 1.91-1.54 3.79-3.06 5.73-4.62zm46.47 78.14c1.87-1.12 3.7-2.21 5.52-3.29-.33-.85-2.84-4.55-3.41-5.02-1.83 1.27-3.66 2.55-5.58 3.89 1.18 1.5 2.29 2.92 3.47 4.42zm21.39-25.46c-1.32-1.79-2.59-3.52-3.9-5.29-1.66.7-2.96 1.97-4.42 3.09 1.06 2.02 2.28 3.81 3.64 5.81 1.63-1.25 3.16-2.43 4.68-3.61zm-9.49-4.01c1.54-.98 3.04-1.93 4.52-2.87-1.45-2.02-2.86-4-4.31-6.02-1.36 1.19-2.98 1.98-4.19 3.28 1.33 1.86 2.62 3.69 3.98 5.61zM22.36 15.03c1.87-1.37 3.6-2.64 5.38-3.94-1.15-1.62-2.29-3.23-3.52-4.97-1.44 1.87-3.21 3.13-5.08 4.37 1.13 1.59 2.19 3.09 3.22 4.54zm11.42 2.54c1.42-1.19 3-1.97 4.29-3.13-1.55-2.14-3.04-4.2-4.63-6.38-.03.89-.66 1.21-1.19 1.64-.79.65-1.53 1.35-2.3 2.03 1.3 1.97 2.53 3.85 3.83 5.84zm-8.6-12.13c1.25 1.7 2.44 3.33 3.66 4.99.48-.39.86-.71 1.24-1.02.77-.64 1.54-1.27 2.31-1.91.3-.25.41-.5.18-.89-.89-1.56-2.13-2.81-3.41-4.16-1.19 1.18-2.74 1.78-3.98 2.99zM133.65 138.23c.24-.15.53-.25.7-.45 1.17-1.36 2.75-2.15 4.2-3.13 1.26-.86 2.47-1.81 3.71-2.71.46-.33.94-.61 1.4-.94.38-.27.76-.55 1.11-.86 2.02-1.78 4.12-3.45 6.47-4.81.94-.54 1.76-1.3 2.63-1.96.2-.15.39-.32.6-.45 1.42-.92 2.84-1.83 4.25-2.75.16-.1.32-.19.53-.31.18.19.36.35.51.54 1.86 2.4 3.72 4.8 5.57 7.21.87 1.14 1.74 2.3 2.55 3.48 1.33 1.93 2.67 3.86 4.23 5.63.64.72 1.09 1.6 1.68 2.37.8 1.05 1.68 2.02 2.45 3.09 1.22 1.67 2.38 3.38 3.55 5.08 2.28 3.34 4.52 6.69 6.83 10.01 1.14 1.65 2.39 3.22 3.56 4.84.38.53.73 1.09 1.03 1.67.8 1.53 1.65 3.01 2.71 4.39 1.54 2.01 3 4.09 4.5 6.14 1.74 2.38 3.48 4.75 5.22 7.12 2.09 2.86 4.16 5.72 6.26 8.57.95 1.29 1.94 2.53 2.89 3.82.98 1.34 1.93 2.7 2.91 4.04.48.66 1.01 1.27 1.5 1.93 1.31 1.75 2.62 3.51 3.9 5.28.32.45.51 1 .77 1.5.11.22.23.43.36.69-.05.52-.44.77-.93.94-.17.06-.36.13-.5.24-1.22.91-2.43 1.85-3.66 2.75-.73.53-1.53.96-2.27 1.48-.84.59-1.64 1.25-2.49 1.84-.99.7-2.02 1.36-3.02 2.05-.33.23-.69.46-.94.77-.67.83-1.53 1.35-2.51 1.75-.64.26-1.25.58-1.85.92-.76.43-1.49.91-2.41.99-.28.03-.57.25-.8.45-.55.46-1.09.91-1.78 1.19-.45.18-.81.57-1.19.9-.54.47-1.05.97-1.57 1.46-.49.46-1.12.52-1.74.6-.18.02-.54-.11-.56-.22-.14-.69-.81-.76-1.21-1.13-.43-.4-.78-.9-1.14-1.37-.64-.84-1.26-1.71-1.91-2.55-.46-.59-.95-1.16-1.41-1.74-.23-.29-.44-.6-.66-.91-.69-.93-1.39-1.85-2.05-2.8-.82-1.18-1.63-2.37-2.41-3.58-.91-1.42-1.78-2.87-2.66-4.31-.74-1.2-1.43-2.43-2.21-3.6-1.02-1.54-2.06-3.07-3.18-4.53-1.33-1.73-2.77-3.38-4.13-5.09-.91-1.15-1.76-2.36-2.63-3.54-.15-.2-.27-.42-.42-.62-1.52-2.02-3.04-4.04-4.55-6.07-1.44-1.93-2.87-3.86-4.29-5.81-1.4-1.92-2.78-3.85-4.17-5.78-1.4-1.92-2.81-3.83-4.21-5.75-1.83-2.5-3.6-5.04-5.5-7.48-2.51-3.21-4.55-6.74-6.92-10.04-1.02-1.42-2.16-2.76-3.18-4.18-2.01-2.79-3.96-5.63-5.96-8.42-.56-.79-1.22-1.5-1.81-2.27-2-2.61-3.97-5.23-5.97-7.84-1.08-1.41-2.19-2.8-3.31-4.18-1.14-1.41-2.31-2.79-3.47-4.18-.2-.24-.4-.49-.64-.69-.8-.65-1-1.64-1.39-2.51-.13-.3.17-.82.32-1.22.1-.28.29-.54.44-.81.34-.12.47.12.53.36.21.96.93 1.53 1.55 2.19 2.63 2.81 5.29 5.6 7.44 8.82.9 1.35 1.92 2.64 2.98 3.87 2.07 2.4 3.97 4.92 5.72 7.56.63 1.04 1.34 2.03 2.05 3.06zm34.98 23.12c1.74 2.31 3.31 4.67 5.18 6.81 2.07-1.28 4.15-2.38 5.78-3.99-1.59-2.36-3.13-4.65-4.71-7-2.08 1.39-4.12 2.76-6.25 4.18zm-6.79-9.32c2.22-1.64 4.37-3.23 6.5-4.8-1.48-1.87-2.91-3.68-4.37-5.53-2.45 1.17-4.81 2.42-7.08 3.8 1.67 2.19 3.27 4.31 4.95 6.53zm7.81-2.91c-2.22 1.62-4.41 3.03-6.45 4.72 1.58 2.03 2.94 4.07 4.53 6.04 2.08-1.45 4.08-2.84 6.12-4.26-1.42-2.17-2.76-4.26-4.2-6.5zm15.14 33.71c1.56 1.94 3.06 3.8 4.56 5.68 1.95-1.12 4.02-1.94 5.38-3.66-.93-2.41-2.74-4.15-4.06-6.3-1.9 1.5-4.11 2.48-5.88 4.28zm-23.02-16.39c.14.85.72 1.19 1.11 1.68.78 1 1.55 2 2.32 3.01.42.54.83 1.09 1.22 1.61.77-.15 1.32-.52 1.89-.92.86-.6 1.64-1.33 2.65-1.69.26-.09.47-.34.69-.52-1.7-2.37-3.33-4.64-5.02-7-1.75 1.21-3.29 2.59-4.86 3.83zm9.3-18.52c1.43 2.09 2.9 4.25 4.4 6.44 1.72-1.16 3.33-2.25 4.99-3.38-1.79-2.32-2.79-5.17-4.73-7.38-1.58 1.46-3.09 2.86-4.66 4.32zm5.54 7.87c1.68 2.36 3.32 4.66 4.97 6.96 1.57-.99 3.11-1.96 4.7-2.97-1.51-2.37-3.04-4.76-4.58-7.18-1.88.9-3.48 2.01-5.09 3.19zm-26.71-5.39c1.6 2.11 3.2 4.21 4.84 6.37 1.64-1.11 3.29-2.21 5.01-3.37-1.68-2.15-3.3-4.23-4.96-6.37-1.7 1.15-3.66 1.72-4.89 3.37zm44.8 45.9c1.91-1.25 3.78-2.46 5.71-3.72-.73-.92-1.31-1.79-2.03-2.5-1.09-1.08-2.11-2.18-2.72-3.74-1.56 1.56-3.22 2.82-5.27 3.67 1.46 2.13 2.84 4.15 4.31 6.29zm-9.03-24.58c-2.1 1.28-4.28 2.29-6.21 3.71 1.38 1.92 2.72 3.79 4.08 5.7 2.05-1.43 3.98-2.79 5.92-4.15-1.52-1.61-2.64-3.37-3.79-5.26zm-33.86-32.36c1.04 1.44 1.93 2.92 3.27 4.05 2.45-1.26 4.89-2.53 7.24-4.16-1.51-1.5-2.96-2.95-4.37-4.36-.93.26-1.59.75-2.23 1.32-.53.48-1.08.97-1.69 1.32-.83.49-1.55 1.05-2.22 1.83zm2.2-12.65c1.32 1.88 2.44 3.66 3.78 5.12 1.53-.83 2.96-1.59 4.37-2.38.53-.3 1.02-.69 1.51-1.03-.09-.19-.12-.29-.18-.36-.71-.8-1.23-1.7-1.69-2.67-.47-1-1.24-1.84-2-2.52-.83.54-1.58 1.02-2.33 1.52-1.1.73-2.2 1.48-3.46 2.32zm-3.97 10.43c2.06-1.48 4.37-2.48 6.3-4.13-1.26-1.65-2.46-3.23-3.72-4.87-2.01 1.52-4.11 3.1-6.27 4.73 1.27 1.47 2.47 2.85 3.69 4.27zm47.47 48.02c1.57 2.14 2.8 4.35 4.39 6.38.88-.54 1.67-1.04 2.47-1.51.79-.47 1.6-.91 2.48-1.4-1.61-2.33-3.14-4.55-4.7-6.8-1.57 1.13-3.05 2.19-4.64 3.33zm-41.59-26.37c1.88 1.62 2.96 3.7 4.2 5.78 1.38-.84 2.67-1.61 3.94-2.41.47-.29.89-.65 1.36-1-1.22-2.1-2.49-4.12-4.41-5.74-1.77.87-3.4 1.99-5.09 3.37zm16.44 21.36c1.62 1.89 2.95 3.89 4.38 5.68 1.75-1.18 3.4-2.29 5.08-3.42-1.15-2.12-2.93-3.72-4.32-5.74-1.72 1.16-3.36 2.28-5.14 3.48zm-8.39-41.69c1.41-1.26 3.32-1.99 4.88-3.42-1.35-1.82-2.65-3.59-3.96-5.37-2.14.99-3.65 2.61-5.4 4.02 1.52 1.61 2.98 3.17 4.48 4.77zm-20.04 15.94c1.6 2.09 3.18 4.16 4.72 6.18.37-.31.65-.61.98-.81.98-.61 1.99-1.18 2.98-1.78.18-.11.33-.25.53-.39-1.25-2.28-3.07-4.06-4.54-6.16-1.5 1.14-3.34 1.56-4.67 2.96zm25.95-8.17c1.46-1.45 3.26-2.25 4.62-3.57-1.48-1.89-2.37-4.1-4.21-5.58-1.58 1.19-3.15 2.39-4.78 3.62 1.42 1.8 2.85 3.6 4.37 5.53zm22.3 31.26c1.45 2.06 2.87 4.08 4.3 6.1 1.66-.9 3.28-1.77 4.91-2.65-.01-.04-.03-.14-.08-.21-.1-.15-.21-.31-.35-.44-1.27-1.19-2.2-2.63-3.09-4.1-.43-.71-.99-1.33-1.56-2.1-.36.97-1.04 1.39-1.75 1.81-.79.48-1.54 1.03-2.38 1.59zm-4.76 22.84c1.87-1.14 3.64-2.22 5.42-3.3l-4.38-5.48c-1.63 1.17-3.25 2.33-4.94 3.54 1.29 1.75 2.57 3.47 3.9 5.24zm-9.4-12.83c1.39 1.88 2.7 3.65 4.03 5.44 1.78-1.1 3.44-2.12 5.11-3.15-.94-2.21-2.7-3.7-3.89-5.64-.26.21-.42.36-.6.48-1.02.66-2.04 1.32-3.07 1.97-.48.3-.99.57-1.58.9zm3.29 17.72c.07.01.13.01.2.02 0-1.13.89-1.46 1.58-1.96.87-.63 1.75-1.25 2.73-1.94-1.07-1.96-2.66-3.43-3.74-5.32-1.79.85-3.48 1.75-5.12 2.79 1.49 2.19 2.92 4.3 4.35 6.41zm27.81.31c-1.15-1.71-2.21-3.27-3.31-4.89-1.94 1.1-3.86 2.18-5.88 3.32 1.12 1.77 2.17 3.42 3.26 5.16 2.03-1.23 3.97-2.41 5.93-3.59zm-37.99-24.17c-1.64.93-3.19 1.89-4.52 3.18 1.44 1.92 2.88 3.84 4.28 5.7 1.59-1.19 3.11-2.32 4.69-3.49-1.52-1.84-2.97-3.59-4.45-5.39zm-10.8-13.61c-.32.17-.59.33-.86.47-.65.35-1.28.78-1.97 1.01-.62.21-1.1.52-1.54.96 1.59 2.13 3.15 4.22 4.69 6.29.78-.43 1.5-.82 2.21-1.23.71-.41 1.42-.85 2.23-1.34-1.23-2.25-3.09-4.07-4.76-6.16zm44.5 31.31c-.54-.83-1.1-1.66-1.64-2.5-.55-.86-1.08-1.72-1.73-2.54-.39.3-.67.54-.98.76-.66.47-1.31.95-1.98 1.4-.9.61-1.82 1.19-2.76 1.8.96 1.36 1.86 2.62 2.75 3.88.43.61.56.64 1.21.3.74-.4 1.52-.75 2.23-1.2.97-.61 2.14-.92 2.9-1.9zm2.43 16.1c1.09-.77 2.04-1.54 3.09-2.14 1.04-.6 2.16-1.07 3.04-1.76-1.17-1.53-2.3-3-3.46-4.51-.84.38-1.71.73-2.46 1.4-.57.51-1.32.82-1.99 1.21-.47.28-.95.56-1.47.86 1.1 1.7 2.15 3.28 3.25 4.94zm-4.33-22.1c1.2 1.74 2.39 3.47 3.64 5.28 1.63-1.24 3.63-1.7 5.07-2.77-1.4-1.98-2.74-3.87-4.06-5.73a700.66 700.66 0 0 1-4.65 3.22zm-26.76 4.6c.34-.95 1-1.47 1.71-1.92.37-.24.78-.4 1.15-.62.6-.36 1.23-.71 1.64-1.3-1.4-1.76-2.37-3.77-4.07-5.35-1.47 1.15-2.94 2.31-4.44 3.48 1.33 1.87 2.63 3.73 4.01 5.71zm36.4-1.28c-1.42 1.56-3.57 1.9-5.14 3.28 1.13 1.66 2.22 3.26 3.28 4.81 2.01-.95 3.94-1.87 5.99-2.85-1.36-1.71-2.68-3.4-4.13-5.24zm-.98 9.26c1.13 1.7 2.17 3.28 3.25 4.89 1.91-1.02 3.85-2.06 5.87-3.14l-3.27-4.86c-.53.33-.93.63-1.36.84-.89.45-1.81.84-2.71 1.28-.6.29-1.16.63-1.78.99zm-33.25-31.68c2.09-1.17 4.16-2.31 6.34-3.53-1.26-1.53-2.42-2.95-3.6-4.39-.44.27-.95.43-1.2.77-.44.61-1.02.92-1.68 1.12-.57.17-1.07.37-1.43.9-.18.25-.56.37-.86.53-.26.14-.54.25-.88.4 1.13 1.43 2.19 2.78 3.31 4.2zm-23.97-5.53c.89-.56 1.56-1.12 2.33-1.42.58-.23 1.02-.57 1.49-.93.39-.29.38-.59.16-1.05-.63-1.34-1.51-2.51-2.46-3.63-.4-.47-.75-.98-1.18-1.55-1.55.91-3.06 1.73-4.37 2.58 1.37 2.03 2.67 3.97 4.03 6zm28.34-3.95c1.28 1.7 2.46 3.26 3.69 4.89 1.48-.57 2.97-1.15 4.38-1.7-.31-.89-.57-1.68-.85-2.47a4.87 4.87 0 0 0-.44-.92c-.46-.74-.93-1.48-1.42-2.2-.26-.38-.56-.73-.88-1.15-1.49 1.19-2.92 2.32-4.48 3.55zm15.72 40.48c-2.01.79-3.66 1.88-5.23 3.03l3.55 4.78c1.67-.75 3.3-1.7 4.78-3.01-1.03-1.59-2.06-3.19-3.1-4.8zM196 215.47c-1.78.99-3.81 1.63-5.42 3.16 1.23 1.62 2.49 3.27 3.72 4.9 1.63-1.36 3.21-2.67 4.73-3.94-1.01-1.38-1.99-2.7-3.03-4.12zm-45.61-75.09c-1.4.84-2.72 1.68-4.1 2.42-.67.36-1.09.88-1.48 1.44 1.07 1.27 2.09 2.49 3.13 3.72 1.88-.84 3.63-1.83 5.19-3.18-.87-1.53-1.38-3.18-2.74-4.4zm-1.69-2.45c-1.38-1.13-2.1-2.74-3.44-3.73-.13.02-.19.02-.25.04-.65.24-1.2.63-1.74 1.08-.89.74-1.88 1.35-2.81 2.03-.26.19-.47.44-.7.67 1.12 1.33 2.15 2.56 3.15 3.76 1.95-1.3 3.8-2.53 5.79-3.85zM194.22 199c-1.81 1.11-3.73 1.93-5.47 3.13 1.06 1.51 2.06 2.93 3.09 4.39 1.84-1.1 3.66-2.19 5.47-3.28-.45-1.11-1.74-2.88-3.09-4.24zm.59 14.6c-1.19-1.59-2.24-2.99-3.32-4.43-1.9.9-3.51 2.1-5.23 3.24 1.04 1.52 2.04 2.97 3.08 4.49.77-.61 1.45-1.15 2.14-1.68.22-.17.44-.44.68-.47.97-.12 1.6-.89 2.65-1.15zm-7.67-42.86c1.56 1.79 2.51 3.79 4.1 5.36 1.46-.93 3.11-1.43 4.43-2.62-.58-.73-1.03-1.5-1.68-2.07-.97-.85-1.82-1.77-2.46-2.82-.68.33-1.41.54-1.92.98-.68.6-1.41 1-2.47 1.17zm-15.99 7.79c1.7-1.22 3.29-2.36 4.94-3.54-.95-1.18-1.95-2.44-3.04-3.8-.46.32-.84.57-1.21.84-.43.31-.8.76-1.28.92-1.07.36-1.61 1.33-2.62 1.89 1.15 1.33 2.23 2.56 3.21 3.69zm14.37 32.74c.07.01.14.03.22.04-.16-1.18.62-1.63 1.43-2.09.98-.55 1.93-1.15 2.98-1.78-.79-1.59-1.99-2.87-3.03-4.39-1.5 1.38-3.45 2.04-4.66 3.72 1.03 1.52 2.05 3.01 3.06 4.5zm20.1 4.66c-1.04-1.6-2-3.07-2.99-4.6-1.69 1.09-3.3 2.13-4.9 3.16.18.77 2.06 3.19 2.85 4.05 1.7-.88 3.37-1.75 5.04-2.61zm-43.76-37.55c1.2 1.55 2.3 2.98 3.46 4.48 1.53-1.14 2.99-2.22 4.47-3.32-1.01-1.17-1.98-2.27-2.9-3.4-.27-.33-.47-.34-.78-.14-.31.2-.62.42-.95.6-1.05.58-2.11 1.14-3.3 1.78zm-20.44-35.76c-.16-.29-.31-.63-.52-.94-.52-.75-1.09-1.45-1.58-2.21-.35-.56-.78-.66-1.35-.45-1.31.48-2.6 1.02-3.88 1.75 1.3 1.75 2.49 3.49 3.81 4.99 1.2-1.07 2.34-2.08 3.52-3.14zm2.25 2.87c-.16.05-.28.07-.4.11-.88.32-1.76.61-2.62.96-.55.22-1.03.56-1.39 1.12 1.11 1.62 2.22 3.23 3.42 4.96.93-1.73 2.47-2.67 3.86-3.81-.68-1.4-2-2.17-2.87-3.34z"></path><path d="M117.26 114.95c.2-.63.4-1.26.63-1.87.3-.78.23-1.55-.03-2.32-.09-.26-.13-.53-.18-.81-.12-.7-.33-1.35-.96-1.76-1.56-1.02-3.24-1.63-5.14-1.31-1.06.18-2.07.58-2.75 1.4-1.57 1.87-1.9 4.01-1.01 6.3.16.4.36.81.65 1.12.95 1.02 2.18 1.55 3.41 1.89 1.28.1 2.42.07 3.47-.57.85-.51 1.59-1.08 1.91-2.07z"></path><path fill="#f7f6ee" d="M114 114.82c.27-.18.55-.34.8-.54.18-.14.32-.33.45-.51.11-.15.19-.33.3-.49.42-.61.44-1.78.04-2.4-.06-.09-.14-.2-.12-.29.08-.4-.2-.59-.46-.7-.92-.39-1.82-.79-2.87-.78-1.07.02-2.11.95-2.18 1.98 0 .35-.04.7-.01 1.04.08.99.58 1.78 1.31 2.4.77.65 1.72.46 2.62.36.05-.01.09-.05.12-.07z"></path></g></svg>