<svg width="512" height="442.137" xmlns="http://www.w3.org/2000/svg" clip-rule="evenodd" fill-rule="evenodd" image-rendering="optimizeQuality" text-rendering="geometricPrecision" shape-rendering="geometricPrecision">
  <g>
    <title>Layer 1</title>
    <path fill="pink" stroke="pink" id="svg_1" d="m498.536,442.137c-31.387,-25.229 -67.042,-47.435 -83.064,-62.714c-5.282,-5.036 -11.007,-12.153 -1.664,-8.574c25.872,9.909 54.004,27.667 75.003,49.744c-2.547,-18.498 2.366,-41.616 9.997,-60.504c0.939,-2.328 3.886,-11.918 7.547,-15.089c1.358,-1.177 2.819,-1.472 4.307,-0.18c0.849,0.739 1.28,1.995 1.333,3.707c0.152,4.983 -3.387,19.558 -6.693,33.835c-4.904,21.183 -7.422,37.783 -6.766,59.775z"/>
    <path id="svg_2" stroke="pink" fill="pink" d="m244.32236,236.348c4.33076,-22.157 5.80875,-44.278 4.96004,-66.742c45.88484,16.983 86.91987,47.759 121.2333,82.094c41.46089,41.487 76.04687,91.781 100.88112,142.434c7.72463,15.756 12.16662,22.106 22.82719,36.215c-19.86119,-95.783 -137.4912,-251.196 -247.19818,-274.194c-14.33701,-126.993 -143.76189,-209.872 -247.02583,-115.451c95.54633,-64.986 210.94884,-25.748 235.13377,113.48c-11.70869,-1.414 -23.28011,-1.219 -34.58498,0.824c-26.74712,4.83 -52.56837,12.782 -72.88347,38.719c-28.18202,35.979 -26.37737,94.975 19.3251,115.587c54.97323,24.792 88.10527,-25.739 97.33194,-72.966zm-7.03023,-67.487c0.8908,23.575 -1.13029,48.171 -6.12339,71.196c-8.04628,37.107 -29.78627,69.192 -65.53961,62.82c-22.12878,-3.943 -35.76737,-18.675 -40.64224,-38.116c-17.55753,-70.029 62.74396,-107.875 112.30524,-95.9z"/>
  </g>
</svg>
